<svg xmlns="http://www.w3.org/2000/svg" xmlns:xlink="http://www.w3.org/1999/xlink" width="150" zoomAndPan="magnify" viewBox="0 0 112.5 74.999997" height="100" preserveAspectRatio="xMidYMid meet" version="1.0"><defs><filter x="0%" y="0%" width="100%" height="100%" id="20d4309179"><feColorMatrix values="0 0 0 0 1 0 0 0 0 1 0 0 0 0 1 0 0 0 1 0" color-interpolation-filters="sRGB"/></filter><g/><clipPath id="089c7e7326"><path d="M 82 22.160156 L 87.832031 22.160156 L 87.832031 49.160156 L 82 49.160156 Z M 82 22.160156 " clip-rule="nonzero"/></clipPath><clipPath id="78568b7e84"><path d="M 73.699219 22.160156 L 81 22.160156 L 81 49.160156 L 73.699219 49.160156 Z M 73.699219 22.160156 " clip-rule="nonzero"/></clipPath><mask id="2a8be5c3c0"><g filter="url(#20d4309179)"><rect x="-11.25" width="135" fill="#000000" y="-7.5" height="89.999996" fill-opacity="0.298"/></g></mask><clipPath id="e155178828"><path d="M 0.734375 0.359375 L 0.972656 0.359375 L 0.972656 0.839844 L 0.734375 0.839844 Z M 0.734375 0.359375 " clip-rule="nonzero"/></clipPath><clipPath id="8dc61c352c"><rect x="0" width="1" y="0" height="1"/></clipPath><clipPath id="4b6ad19aa0"><path d="M 83 46 L 87 46 L 87 49.160156 L 83 49.160156 Z M 83 46 " clip-rule="nonzero"/></clipPath><mask id="7d43baa32c"><g filter="url(#20d4309179)"><rect x="-11.25" width="135" fill="#000000" y="-7.5" height="89.999996" fill-opacity="0.298"/></g></mask><clipPath id="11a2e42c6f"><path d="M 0.628906 0.0429688 L 3.257812 0.0429688 L 3.257812 3.160156 L 0.628906 3.160156 Z M 0.628906 0.0429688 " clip-rule="nonzero"/></clipPath><clipPath id="f9bccdd75b"><rect x="0" width="4" y="0" height="4"/></clipPath><clipPath id="29d9316415"><path d="M 75 46 L 79 46 L 79 49.160156 L 75 49.160156 Z M 75 46 " clip-rule="nonzero"/></clipPath><mask id="a50534a6b7"><g filter="url(#20d4309179)"><rect x="-11.25" width="135" fill="#000000" y="-7.5" height="89.999996" fill-opacity="0.298"/></g></mask><clipPath id="c953a1f356"><path d="M 0.742188 0.0429688 L 3.371094 0.0429688 L 3.371094 3.160156 L 0.742188 3.160156 Z M 0.742188 0.0429688 " clip-rule="nonzero"/></clipPath><clipPath id="da92a94060"><rect x="0" width="4" y="0" height="4"/></clipPath></defs><g fill="#00846b" fill-opacity="1"><g transform="translate(12.451114, 46.442714)"><g><path d="M 15.796875 -15.625 L 10.046875 -15.625 L 10.046875 0 L 6.1875 0 L 6.1875 -15.625 L 0.515625 -15.625 L 0.515625 -18.765625 L 15.796875 -18.765625 Z M 15.796875 -15.625 "/></g></g></g><g fill="#00846b" fill-opacity="1"><g transform="translate(31.413207, 46.442714)"><g><path d="M 17.09375 -8.953125 C 17.09375 -7.109375 16.765625 -5.488281 16.109375 -4.09375 C 15.453125 -2.707031 14.515625 -1.632812 13.296875 -0.875 C 12.085938 -0.125 10.695312 0.25 9.125 0.25 C 7.570312 0.25 6.179688 -0.117188 4.953125 -0.859375 C 3.734375 -1.609375 2.789062 -2.675781 2.125 -4.0625 C 1.457031 -5.445312 1.117188 -7.046875 1.109375 -8.859375 L 1.109375 -9.78125 C 1.109375 -11.625 1.441406 -13.25 2.109375 -14.65625 C 2.773438 -16.0625 3.710938 -17.140625 4.921875 -17.890625 C 6.140625 -18.640625 7.53125 -19.015625 9.09375 -19.015625 C 10.65625 -19.015625 12.046875 -18.640625 13.265625 -17.890625 C 14.484375 -17.140625 15.425781 -16.0625 16.09375 -14.65625 C 16.757812 -13.25 17.09375 -11.628906 17.09375 -9.796875 Z M 13.171875 -9.8125 C 13.171875 -11.769531 12.816406 -13.257812 12.109375 -14.28125 C 11.410156 -15.3125 10.40625 -15.828125 9.09375 -15.828125 C 7.800781 -15.828125 6.800781 -15.320312 6.09375 -14.3125 C 5.382812 -13.300781 5.03125 -11.820312 5.03125 -9.875 L 5.03125 -8.953125 C 5.03125 -7.035156 5.378906 -5.546875 6.078125 -4.484375 C 6.785156 -3.429688 7.800781 -2.90625 9.125 -2.90625 C 10.414062 -2.90625 11.410156 -3.414062 12.109375 -4.4375 C 12.804688 -5.457031 13.160156 -6.941406 13.171875 -8.890625 Z M 13.171875 -9.8125 "/></g></g></g><g fill="#00846b" fill-opacity="1"><g transform="translate(52.269157, 46.442714)"><g><path d="M 5.546875 -6.609375 L 5.546875 0 L 1.671875 0 L 1.671875 -18.765625 L 9 -18.765625 C 10.40625 -18.765625 11.640625 -18.503906 12.703125 -17.984375 C 13.773438 -17.472656 14.597656 -16.742188 15.171875 -15.796875 C 15.753906 -14.847656 16.046875 -13.765625 16.046875 -12.546875 C 16.046875 -10.710938 15.414062 -9.265625 14.15625 -8.203125 C 12.894531 -7.140625 11.15625 -6.609375 8.9375 -6.609375 Z M 5.546875 -9.734375 L 9 -9.734375 C 10.019531 -9.734375 10.796875 -9.972656 11.328125 -10.453125 C 11.867188 -10.941406 12.140625 -11.632812 12.140625 -12.53125 C 12.140625 -13.445312 11.867188 -14.1875 11.328125 -14.75 C 10.785156 -15.320312 10.035156 -15.613281 9.078125 -15.625 L 5.546875 -15.625 Z M 5.546875 -9.734375 "/></g></g></g><g fill="#00846b" fill-opacity="1"><g transform="translate(71.921699, 46.442714)"><g/></g></g><g clip-path="url(#089c7e7326)"><path fill="#00846b" d="M 85.570312 35.089844 C 85.570312 36.691406 87.09375 47.824219 86.230469 51.867188 C 85.871094 53.558594 83.984375 53.335938 83.671875 51.867188 C 82.875 48.136719 84.300781 44.703125 84.300781 35 C 84.300781 33.671875 83.285156 33.636719 82.734375 31.925781 C 82.242188 30.394531 82.9375 22.15625 83.160156 22.15625 C 83.414062 22.15625 83.289062 29.289062 83.773438 29.289062 C 84.261719 29.289062 84.015625 22.25 84.324219 22.15625 C 84.632812 22.058594 84.40625 29.289062 84.976562 29.289062 C 85.554688 29.289062 85.179688 22.15625 85.488281 22.15625 C 85.796875 22.15625 85.710938 29.289062 86.179688 29.289062 C 86.699219 29.289062 86.417969 22.15625 86.652344 22.15625 C 87.042969 22.15625 87.503906 29.902344 87.261719 31.542969 C 87.015625 33.179688 85.570312 33.488281 85.570312 35.089844 Z M 85.570312 35.089844 " fill-opacity="1" fill-rule="nonzero"/></g><g clip-path="url(#78568b7e84)"><path fill="#00846b" d="M 77.742188 34.746094 C 77.742188 44.488281 79.296875 48.449219 78.402344 51.886719 C 77.976562 53.527344 76.15625 53.332031 75.84375 51.886719 C 75.121094 48.554688 76.472656 44.292969 76.472656 34.746094 C 76.472656 33.636719 73.714844 33.824219 73.714844 30.027344 C 73.714844 25.273438 75.472656 22.128906 77.144531 22.128906 C 78.703125 22.128906 80.398438 25.578125 80.398438 30.027344 C 80.398438 33.59375 77.742188 33.828125 77.742188 34.746094 Z M 77.742188 34.746094 " fill-opacity="1" fill-rule="nonzero"/></g><g mask="url(#2a8be5c3c0)"><g transform="matrix(1, 0, 0, 1, 86, 28)"><g clip-path="url(#8dc61c352c)"><g clip-path="url(#e155178828)"><path fill="#00846b" d="M 0.746094 0.527344 C 0.75 0.578125 0.773438 0.613281 0.800781 0.605469 C 0.824219 0.601562 0.84375 0.554688 0.839844 0.503906 C 0.835938 0.453125 0.8125 0.417969 0.789062 0.425781 C 0.761719 0.433594 0.742188 0.476562 0.746094 0.527344 Z M 0.746094 0.527344 " fill-opacity="0.7765" fill-rule="nonzero"/></g></g></g></g><g clip-path="url(#4b6ad19aa0)"><g mask="url(#7d43baa32c)"><g transform="matrix(1, 0, 0, 1, 83, 46)"><g clip-path="url(#f9bccdd75b)"><g clip-path="url(#11a2e42c6f)"><path fill="#00846b" d="M 3.054688 5.816406 C 2.902344 6.515625 2.246094 7.007812 1.570312 6.6875 C 0.820312 6.335938 0.714844 5.164062 0.710938 4.53125 C 0.699219 3.40625 0.816406 2.574219 0.953125 1.476562 C 0.992188 1.132812 1.0625 0.496094 1.128906 0.183594 C 1.132812 1.070312 0.996094 1.929688 1.160156 2.8125 C 1.402344 3.640625 1.132812 5.15625 1.917969 5.710938 C 2.308594 5.984375 3.011719 5.441406 3.054688 5.8125 Z M 3.054688 5.816406 " fill-opacity="1" fill-rule="nonzero"/></g></g></g></g></g><g clip-path="url(#29d9316415)"><g mask="url(#a50534a6b7)"><g transform="matrix(1, 0, 0, 1, 75, 46)"><g clip-path="url(#da92a94060)"><g clip-path="url(#c953a1f356)"><path fill="#00846b" d="M 3.175781 5.816406 C 3.023438 6.515625 2.367188 7.007812 1.691406 6.6875 C 0.941406 6.335938 0.835938 5.164062 0.832031 4.53125 C 0.820312 3.40625 0.9375 2.574219 1.074219 1.476562 C 1.113281 1.132812 1.183594 0.496094 1.25 0.183594 C 1.253906 1.070312 1.117188 1.929688 1.28125 2.8125 C 1.523438 3.640625 1.253906 5.15625 2.039062 5.710938 C 2.429688 5.984375 3.132812 5.441406 3.175781 5.8125 Z M 3.175781 5.816406 " fill-opacity="1" fill-rule="nonzero"/></g></g></g></g></g></svg>